<svg width="22" height="22" viewBox="0 0 22 22" fill="none" xmlns="http://www.w3.org/2000/svg">
<path d="M1.8335 7.85498C1.8335 6.75848 2.27568 6.0865 3.19074 5.57725L6.95755 3.48098C8.93134 2.38255 9.91823 1.83333 11.0002 1.83333C12.0821 1.83333 13.069 2.38255 15.0428 3.48098L18.8096 5.57725C19.7246 6.0865 20.1668 6.75848 20.1668 7.85498C20.1668 8.15231 20.1668 8.30097 20.1344 8.42319C19.9638 9.06532 19.3819 9.16666 18.82 9.16666H3.18034C2.61841 9.16666 2.03656 9.06532 1.86597 8.42319C1.8335 8.30097 1.8335 8.15231 1.8335 7.85498Z" stroke="#30303B" stroke-width="1.4"/>
<path d="M10.9964 6.41655H11.0046" stroke="#30303B" stroke-width="1.4" stroke-linecap="round" stroke-linejoin="round"/>
<path d="M3.66699 9.16666V16.9583M7.33366 9.16666V16.9583" stroke="#30303B" stroke-width="1.4"/>
<path d="M14.667 9.1666V16.9583M18.3337 9.1666V16.9583" stroke="#30303B" stroke-width="1.4"/>
<path d="M17.4168 16.9583H4.5835C3.06471 16.9583 1.8335 18.1895 1.8335 19.7083C1.8335 19.9615 2.0387 20.1667 2.29183 20.1667H19.7085C19.9616 20.1667 20.1668 19.9615 20.1668 19.7083C20.1668 18.1895 18.9356 16.9583 17.4168 16.9583Z" stroke="#30303B" stroke-width="1.4"/>
</svg>
