<svg width="22" height="22" viewBox="0 0 22 22" fill="none" xmlns="http://www.w3.org/2000/svg">
<path d="M1.8335 11C1.8335 7.7573 1.8335 6.13595 2.79856 5.05348C2.95292 4.88035 3.12304 4.72023 3.307 4.57495C4.45712 3.66666 6.1798 3.66666 9.62516 3.66666H12.3752C15.8205 3.66666 17.5432 3.66666 18.6933 4.57495C18.8773 4.72023 19.0474 4.88035 19.2018 5.05348C20.1668 6.13595 20.1668 7.7573 20.1668 11C20.1668 14.2427 20.1668 15.864 19.2018 16.9465C19.0474 17.1196 18.8773 17.2797 18.6933 17.425C17.5432 18.3333 15.8205 18.3333 12.3752 18.3333H9.62516C6.1798 18.3333 4.45712 18.3333 3.307 17.425C3.12304 17.2797 2.95292 17.1196 2.79856 16.9465C1.8335 15.864 1.8335 14.2427 1.8335 11Z" stroke="#202027" stroke-width="1.4" stroke-linecap="round" stroke-linejoin="round"/>
<path d="M9.16699 14.6667H10.542" stroke="#202027" stroke-width="1.4" stroke-miterlimit="10" stroke-linecap="round" stroke-linejoin="round"/>
<path d="M13.292 14.6667L16.5003 14.6667" stroke="#202027" stroke-width="1.4" stroke-miterlimit="10" stroke-linecap="round" stroke-linejoin="round"/>
<path d="M1.8335 8.25H20.1668" stroke="#202027" stroke-width="1.4" stroke-linejoin="round"/>
</svg>
