<svg width="22" height="22" viewBox="0 0 22 22" fill="none" xmlns="http://www.w3.org/2000/svg">
<path d="M4.5835 8.25C4.5835 5.22515 4.5835 3.71273 5.5232 2.77303C6.46289 1.83333 7.97532 1.83333 11.0002 1.83333C14.025 1.83333 15.5374 1.83333 16.4771 2.77303C17.4168 3.71273 17.4168 5.22515 17.4168 8.25V13.75C17.4168 16.7748 17.4168 18.2873 16.4771 19.227C15.5374 20.1667 14.025 20.1667 11.0002 20.1667C7.97532 20.1667 6.46289 20.1667 5.5232 19.227C4.5835 18.2873 4.5835 16.7748 4.5835 13.75V8.25Z" stroke="#30303B" stroke-width="1.4" stroke-linecap="round"/>
<path d="M10.0835 17.4167H11.9168" stroke="#30303B" stroke-width="1.4" stroke-linecap="round" stroke-linejoin="round"/>
<path d="M8.25 1.83333L8.33159 2.32285C8.50839 3.38368 8.59679 3.9141 8.96059 4.23687C9.34008 4.57356 9.87813 4.58333 11 4.58333C12.1219 4.58333 12.6599 4.57356 13.0394 4.23687C13.4032 3.9141 13.4916 3.38368 13.6684 2.32285L13.75 1.83333" stroke="#30303B" stroke-width="1.4" stroke-linejoin="round"/>
</svg>
