<svg width="88" height="120" viewBox="0 0 88 120" fill="none" xmlns="http://www.w3.org/2000/svg">
<path d="M85.2774 12.2733V79.4538L75.5213 85.083V36.9465L65.5896 54.0782L55.8628 70.8489L28.6823 117.727L21.853 113.824L55.8335 55.2196L65.5603 38.4489L68.6921 33.044L65.5506 34.8587L55.8042 40.4879L44.2042 47.1806L30.5945 55.0343L26.7311 57.2684V46.0782L40.2725 38.2538L53.8921 30.4001L55.775 29.3074L65.5213 23.6782L85.2774 12.2733Z" fill="#FEEEE7" stroke="#F3773F" stroke-width="0.558758"/>
<path d="M28.6828 117.727L9.11209 108.01L2.27307 104.127L9.3365 107.62L21.8536 113.825L28.6828 117.727Z" fill="#FEEEE7" stroke="#F3773F" stroke-width="0.558758"/>
<path d="M85.2774 12.273L65.5213 23.6779L55.775 29.3072L53.8921 30.3998L40.2725 38.2535L26.7311 46.0779L17.4628 41.512L7.01404 36.3608L65.4823 2.43887L85.2774 12.273Z" fill="#FEEEE7" stroke="#F3773F" stroke-width="0.558758"/>
<path d="M68.6926 33.0439L65.5609 38.4488L55.8341 55.2195L21.8536 113.824L9.3365 107.619L2.27307 104.127L30.595 55.0342L44.2048 47.1805L55.8048 40.4878L65.5511 34.8585L68.6926 33.0439Z" fill="#FEEEE7" stroke="#F3773F" stroke-width="0.558758"/>
<path d="M75.5219 36.9466V85.0831L55.8732 75.2685L55.8634 70.849L65.5902 54.0783L75.5219 36.9466Z" fill="#FEEEE7" stroke="#F3773F" stroke-width="0.558758"/>
<path d="M26.7311 46.0782V57.2685L7.03356 47.5611L7.01404 36.3611L17.4628 41.5124L26.7311 46.0782Z" fill="#FEEEE7" stroke="#F3773F" stroke-width="0.558758"/>
</svg>
