<svg width="22" height="22" viewBox="0 0 22 22" fill="none" xmlns="http://www.w3.org/2000/svg">
<path d="M1.8335 14.6667C1.8335 16.6934 1.8335 17.7067 2.47687 18.3832C2.57978 18.4914 2.69319 18.5915 2.81583 18.6823C3.58258 19.25 4.73103 19.25 7.02794 19.25H7.63905C9.93596 19.25 11.0844 19.25 11.8512 18.6823C11.9738 18.5915 12.0872 18.4914 12.1901 18.3832C12.8335 17.7067 12.8335 16.6934 12.8335 14.6667C12.8335 12.64 12.8335 11.6266 12.1901 10.9501C12.0872 10.8419 11.9738 10.7418 11.8512 10.651C11.0844 10.0833 9.93596 10.0833 7.63905 10.0833H7.02794C4.73103 10.0833 3.58258 10.0833 2.81583 10.651C2.69319 10.7418 2.57978 10.8419 2.47687 10.9501C1.8335 11.6266 1.8335 12.64 1.8335 14.6667Z" stroke="#30303B" stroke-width="1.4" stroke-linecap="round" stroke-linejoin="round"/>
<path d="M9.16699 7.33334C9.16699 5.30665 9.16699 4.29331 9.81037 3.61677C9.91327 3.50856 10.0267 3.40849 10.1493 3.31769C10.9161 2.75 12.0645 2.75 14.3614 2.75H14.9725C17.2695 2.75 18.4179 2.75 19.1847 3.31769C19.3073 3.40849 19.4207 3.50856 19.5236 3.61677C20.167 4.29331 20.167 5.30665 20.167 7.33334C20.167 9.36002 20.167 10.3734 19.5236 11.0499C19.4207 11.1581 19.3073 11.2582 19.1847 11.349C18.4892 11.8639 17.4796 11.9118 15.5837 11.9162" stroke="#30303B" stroke-width="1.4" stroke-linecap="round" stroke-linejoin="round"/>
<path d="M1.8335 13.75L12.8335 13.75" stroke="#30303B" stroke-width="1.4" stroke-linecap="round"/>
<path d="M9.16699 6.41666L20.167 6.41666" stroke="#30303B" stroke-width="1.4" stroke-linecap="round"/>
<path d="M1.8335 8.25C1.8335 5.20929 4.29278 2.75 7.3335 2.75L6.54778 4.32143" stroke="#30303B" stroke-width="1.4" stroke-linecap="round" stroke-linejoin="round"/>
<path d="M20.167 13.75C20.167 16.7907 17.7077 19.25 14.667 19.25L15.4527 17.6786" stroke="#30303B" stroke-width="1.4" stroke-linecap="round" stroke-linejoin="round"/>
</svg>
