<svg width="22" height="22" viewBox="0 0 22 22" fill="none" xmlns="http://www.w3.org/2000/svg">
<path d="M2.75 9.16666H19.25" stroke="#30303B" stroke-width="1.4" stroke-linejoin="round"/>
<path d="M13.75 5.5L15.5833 5.5" stroke="#30303B" stroke-width="1.4" stroke-linecap="round" stroke-linejoin="round"/>
<path d="M19.25 11.9167V10.0833C19.25 6.19424 19.25 4.2497 18.0418 3.04151C16.8336 1.83333 14.8891 1.83333 11 1.83333C7.11091 1.83333 5.16637 1.83333 3.95818 3.04151C2.75 4.2497 2.75 6.19424 2.75 10.0833V11.9167C2.75 15.8057 2.75 17.7503 3.95818 18.9585C5.16637 20.1667 7.11091 20.1667 11 20.1667C14.8891 20.1667 16.8336 20.1667 18.0418 18.9585C19.25 17.7503 19.25 15.8057 19.25 11.9167Z" stroke="#30303B" stroke-width="1.4"/>
<path d="M6.4165 12.8333H6.89896M10.7586 12.8333H11.2411M15.1007 12.8333H15.5832" stroke="#30303B" stroke-width="1.4" stroke-linecap="round" stroke-linejoin="round"/>
<path d="M6.4165 16.5H6.89896M10.7586 16.5H11.2411M15.1007 16.5H15.5832" stroke="#30303B" stroke-width="1.4" stroke-linecap="round" stroke-linejoin="round"/>
</svg>
